<?xml version="1.0" encoding="UTF-8" standalone="no"?>
<!-- Created with Inkscape (http://www.inkscape.org/) -->

<svg
   xmlns:osb="http://www.openswatchbook.org/uri/2009/osb"
   xmlns:dc="http://purl.org/dc/elements/1.1/"
   xmlns:cc="http://creativecommons.org/ns#"
   xmlns:rdf="http://www.w3.org/1999/02/22-rdf-syntax-ns#"
   xmlns:svg="http://www.w3.org/2000/svg"
   xmlns="http://www.w3.org/2000/svg"
   xmlns:sodipodi="http://sodipodi.sourceforge.net/DTD/sodipodi-0.dtd"
   xmlns:inkscape="http://www.inkscape.org/namespaces/inkscape"
   inkscape:export-ydpi="90"
   inkscape:export-xdpi="90"
   inkscape:export-filename="C:\Users\User\Desktop\LABPro\_blogs_\Python para Ingenieros\fav_icon_blog_16x16.png"
   sodipodi:docname="fav_icon_blog_16x16.svg"
   inkscape:version="0.48.5 r10040"
   version="1.1"
   id="svg2"
   height="16"
   width="16">
  <sodipodi:namedview
     id="base"
     pagecolor="#ffffff"
     bordercolor="#666666"
     borderopacity="1.0"
     inkscape:pageopacity="0.0"
     inkscape:pageshadow="2"
     inkscape:zoom="21.521211"
     inkscape:cx="4.1141537"
     inkscape:cy="6.9212685"
     inkscape:document-units="px"
     inkscape:current-layer="svg2"
     showgrid="false"
     inkscape:window-width="1366"
     inkscape:window-height="705"
     inkscape:window-x="-4"
     inkscape:window-y="-4"
     inkscape:window-maximized="1"
     showguides="true"
     inkscape:guide-bbox="true" />
  <defs
     id="defs4">
    <inkscape:perspective
       sodipodi:type="inkscape:persp3d"
       inkscape:vp_x="-1.3142509 : 8.722838 : 1"
       inkscape:vp_y="0 : 1000 : 0"
       inkscape:vp_z="14.685749 : 8.722838 : 1"
       inkscape:persp3d-origin="6.6857491 : 6.0561713 : 1"
       id="perspective3095" />
    <linearGradient
       id="linearGradient6695"
       osb:paint="solid">
      <stop
         style="stop-color:#8e0000;stop-opacity:1;"
         offset="0"
         id="stop6697" />
    </linearGradient>
    <inkscape:path-effect
       effect="gears"
       id="path-effect5251"
       is_visible="true"
       teeth="18"
       phi="20" />
    <inkscape:path-effect
       effect="gears"
       id="path-effect5239"
       is_visible="true"
       teeth="28"
       phi="5" />
    <inkscape:path-effect
       effect="gears"
       id="path-effect5227"
       is_visible="true"
       teeth="28"
       phi="5" />
  </defs>
  <metadata
     id="metadata7">
    <rdf:RDF>
      <cc:Work
         rdf:about="">
        <dc:format>image/svg+xml</dc:format>
        <dc:type
           rdf:resource="http://purl.org/dc/dcmitype/StillImage" />
        <dc:title></dc:title>
      </cc:Work>
    </rdf:RDF>
  </metadata>
  <g
     inkscape:label="Layer 1"
     inkscape:groupmode="layer"
     id="layer1"
     transform="translate(0,-1036.3622)">
    <g
       inkscape:label="Gear7"
       transform="translate(10.956916,8.5145899)"
       id="g3837">
      <path
         style="stroke:#000000;fill:none"
         d="M15.462,-3.772L20.341,-4.963L21.723,-4.958L28.602,-1.622L28.602,1.622L21.723,4.958L20.341,4.963L15.462,3.772L12.590,9.737L16.563,12.809L17.421,13.892L19.102,21.350L16.564,23.373L9.668,20.075L8.802,18.998L6.691,14.441L0.237,15.914L0.312,20.936L0.000,22.282L-4.783,28.246L-7.946,27.524L-9.668,20.075L-9.365,18.727L-7.118,14.235L-12.294,10.107L-16.174,13.297L-17.421,13.892L-25.065,13.872L-26.473,10.948L-21.723,4.958L-20.480,4.354L-15.568,3.310L-15.568,-3.310L-20.480,-4.354L-21.723,-4.958L-26.473,-10.948L-25.065,-13.872L-17.421,-13.892L-16.174,-13.297L-12.294,-10.107L-7.118,-14.235L-9.365,-18.727L-9.668,-20.075L-7.946,-27.524L-4.783,-28.246L-0.000,-22.282L0.312,-20.936L0.237,-15.914L6.691,-14.441L8.802,-18.998L9.668,-20.075L16.564,-23.373L19.102,-21.350L17.421,-13.892L16.563,-12.809L12.590,-9.737z"
         id="path3839" />
    </g>
    <g
       id="g3859"
       transform="translate(10.956916,8.5145899)"
       inkscape:label="Gear7">
      <path
         id="path3861"
         d="M15.462,-3.772L20.341,-4.963L21.723,-4.958L28.602,-1.622L28.602,1.622L21.723,4.958L20.341,4.963L15.462,3.772L12.590,9.737L16.563,12.809L17.421,13.892L19.102,21.350L16.564,23.373L9.668,20.075L8.802,18.998L6.691,14.441L0.237,15.914L0.312,20.936L0.000,22.282L-4.783,28.246L-7.946,27.524L-9.668,20.075L-9.365,18.727L-7.118,14.235L-12.294,10.107L-16.174,13.297L-17.421,13.892L-25.065,13.872L-26.473,10.948L-21.723,4.958L-20.480,4.354L-15.568,3.310L-15.568,-3.310L-20.480,-4.354L-21.723,-4.958L-26.473,-10.948L-25.065,-13.872L-17.421,-13.892L-16.174,-13.297L-12.294,-10.107L-7.118,-14.235L-9.365,-18.727L-9.668,-20.075L-7.946,-27.524L-4.783,-28.246L-0.000,-22.282L0.312,-20.936L0.237,-15.914L6.691,-14.441L8.802,-18.998L9.668,-20.075L16.564,-23.373L19.102,-21.350L17.421,-13.892L16.563,-12.809L12.590,-9.737z"
         style="stroke:#000000;fill:none" />
    </g>
  </g>
  <rect
     style="fill:#ff0000;fill-opacity:1;fill-rule:nonzero;stroke:none"
     id="rect3273-1"
     width="4.7320523"
     height="4.7320523"
     x="10.654223"
     y="1.4501868"
     transform="matrix(0.71627727,0.69781578,-0.69781578,0.71627727,0,0)" />
  <rect
     style="fill:#008080;fill-opacity:1;fill-rule:nonzero;stroke:none"
     id="rect3273-1-1"
     width="4.7320523"
     height="4.7320523"
     x="5.2768731"
     y="-3.7246192"
     transform="matrix(0.71627727,0.69781578,-0.69781578,0.71627727,0,0)" />
  <rect
     style="fill:#800080;fill-opacity:1;fill-rule:nonzero;stroke:none"
     id="rect3273-1-5"
     width="4.7320523"
     height="4.7320523"
     x="10.552954"
     y="-3.8258924"
     transform="matrix(0.71627727,0.69781578,-0.69781578,0.71627727,0,0)" />
</svg>
